<svg id="Warstwa_2" xmlns="http://www.w3.org/2000/svg" viewBox="0 0 452.49 88.84">
<g id="Warstwa_1-2">
<path fill="#4d4d4d" className="cls-3" d="m120.39,55.63v17.5h-12.4V11.13h14.1c20,0,29.8,9.1,29.8,22.2,0,14.6-10.5,22.2-31.5,22.3Zm2.2-34.7h-2.1v25h3.9c9,0,15.4-4.5,15.4-12.6,0-8.6-7.3-12.4-17.2-12.4Z"/>
<path fill="#4d4d4d" className="cls-3" d="m174.89,55.63v17.5h-12.4V11.13h14.1c20,0,29.8,9.1,29.8,22.2,0,14.6-10.5,22.2-31.5,22.3Zm2.2-34.7h-2.1v25h3.9c9,0,15.4-4.5,15.4-12.6,0-8.6-7.3-12.4-17.2-12.4Z"/>
<path fill="#4d4d4d" className="cls-3" d="m265.4,10.33h1.6l11.1,62.8h-12.1l-6.2-36.3-16,23.7-16-23.7-6.2,36.3h-12.1l11.1-62.8h1.5l21.7,32.7,21.6-32.7Z"/>
<path fill="#fab63a" className="cls-2" d="m286.79,12.43l11-2.2v62.9h-11V12.43Z"/>
<path fill="#fab63a" className="cls-2" d="m314.29,23.83c-3.5,0-6.4-2.1-6.4-5.7,0-3.4,2.9-5.4,6.4-5.4s6.4,2,6.4,5.5-2.8,5.6-6.4,5.6Zm-5.5,7.5h11v41.8h-11V31.33Z"/>
<path fill="#fab63a" className="cls-2" d="m330.89,83.14l5.7-7.7c2.6,1.8,7.5,4.2,11.7,4.2,4.8,0,10.9-1.1,10.9-11.2v-4.4c-1.7,1.8-5,5.8-12.2,5.8-11.3,0-18-8.2-18-19.3s7.7-19.9,21.4-19.9c11.6,0,18.2,5.8,19.6,6.9v28.8c0,18.4-10.1,22.5-21.1,22.5-6.7,0-13.6-2.4-18-5.7Zm18.5-22.2c6,0,9.8-5.1,9.8-13.5v-5.9c-1-.6-3.7-2-8.5-2-6.9,0-10.6,5.2-10.6,11.2s2.7,10.2,9.3,10.2Z"/>
<path fill="#fab63a" className="cls-2" d="m408.89,52.53c0-8.4-1.5-12.9-7.9-12.9-8.1,0-9.5,7.7-9.5,16.8v16.7h-10.9V12.43l10.9-2.2v27.5c1.8-2.9,6.4-7.1,12.8-7.1,13.2,0,15.7,8.6,15.7,25.3v17.2h-11.1v-20.6Z"/>
<path fill="#fab63a" className="cls-2" d="m444.99,73.64c-10.8,0-14.5-5-14.5-16.4v-17.3h-7.6l2.3-8.6h5.3v-8.7l11-2.4v11.1h10.1v8.6h-10.1v17.5c0,4.5.7,6.5,3.4,7.1,2.2.5,4.7.4,7.6.1l-2.1,8.9c-1,0-2.7.1-5.4.1Z"/>
<path fill="#4d4d4d" className="cls-1" d="m38.43,1.73L1.5,23.05v42.64l36.93,21.32,36.93-21.32V23.05L38.43,1.73Zm1.5,4.33l30.93,17.86-30.93,17.86V6.06Zm-3,35.72L6,23.92,36.93,6.06v35.72Zm-1.5,2.6L4.5,62.23V26.51l30.93,17.86Zm1.5,2.6v35.72l-30.93-17.86,30.93-17.86Zm3,0l30.93,17.86-30.93,17.86v-35.72Zm1.5-2.6l30.93-17.86v35.72l-30.93-17.86Z"/>
</g>
</svg>